<svg width="201" height="39" viewBox="0 0 201 39" fill="none" xmlns="http://www.w3.org/2000/svg">
<path d="M30.1225 17.4116C28.9867 18.5155 28.4191 20.0509 28.5741 21.6001L28.5475 21.5744C28.7068 23.3975 28.026 25.1957 26.6869 26.4894C25.3477 27.7832 23.4862 28.4408 21.5991 28.2869L21.6257 28.3126C19.3408 28.1072 17.1678 29.3079 16.1927 31.3147C15.2176 33.3215 15.6497 35.7035 17.2731 37.2704C18.8965 38.8373 21.3626 39.2526 23.4391 38.3087C25.5155 37.3649 26.7564 35.2646 26.5417 33.0574L26.5698 33.0832C26.4105 31.2601 27.0912 29.4618 28.4304 28.1681C29.7696 26.8744 31.631 26.2168 33.5182 26.3707L33.4901 26.3449C36.0013 26.5631 38.338 25.0839 39.1334 22.7725C39.9288 20.4611 38.974 17.9248 36.8274 16.6471C34.6807 15.3693 31.9063 15.6859 30.1269 17.4116H30.1225Z" fill="#5454D4"/>
<path d="M19.2025 24.9404L19.1744 24.9147C20.779 25.0709 22.3715 24.5227 23.5124 23.4214C24.6532 22.3201 25.2219 20.7821 25.0614 19.2318L25.0895 19.2575C24.9302 17.4344 25.611 15.6362 26.9501 14.3425C28.2893 13.0487 30.1508 12.3911 32.0379 12.545L32.0098 12.5193C34.2949 12.7266 36.4692 11.5272 37.4458 9.52069C38.4224 7.51415 37.9916 5.13145 36.3687 3.5636C34.7457 1.99576 32.2793 1.57953 30.2022 2.52299C28.1252 3.46644 26.8837 5.56692 27.0983 7.77448L27.0716 7.74731C27.2315 9.57055 26.5509 11.3691 25.2116 12.6629C23.8723 13.9568 22.0105 14.6142 20.1232 14.4598L20.1499 14.487C18.5452 14.3308 16.9527 14.879 15.8118 15.9803C14.671 17.0816 14.1023 18.6196 14.2628 20.1699L14.2362 20.1442C14.395 21.9671 13.7141 23.7651 12.375 25.0587C11.0359 26.3523 9.17482 27.0101 7.28778 26.8567L7.31442 26.8824C5.02929 26.6751 2.855 27.8745 1.87839 29.881C0.90178 31.8875 1.33263 34.2702 2.95557 35.8381C4.57852 37.4059 7.04495 37.8222 9.122 36.8787C11.199 35.9353 12.4406 33.8348 12.226 31.6272L12.2541 31.653C12.0948 29.8298 12.7755 28.0316 14.1147 26.7379C15.4539 25.4442 17.3153 24.7865 19.2025 24.9404V24.9404Z" fill="#FF7143"/>
<path d="M9.28171 22.0705C10.4177 20.9668 10.9848 19.4311 10.8286 17.882L10.8567 17.9078C10.6973 16.0841 11.3784 14.2853 12.7183 12.9915C14.0581 11.6977 15.9204 11.0404 17.8081 11.1952L17.78 11.1695C20.0643 11.3762 22.2375 10.177 23.2135 8.17107C24.1896 6.16517 23.7587 3.78341 22.1364 2.21614C20.5141 0.648871 18.0486 0.232673 15.9722 1.17555C13.8958 2.11843 12.6544 4.2179 12.8684 6.42469L12.8418 6.39895C13.0011 8.22206 12.3203 10.0203 10.9812 11.314C9.64198 12.6077 7.78054 13.2654 5.89336 13.1115L5.92001 13.1372C3.40888 12.9197 1.07266 14.3993 0.277732 16.7106C-0.517197 19.022 0.437973 21.5581 2.58459 22.8355C4.73121 24.1129 7.50542 23.7962 9.28467 22.0705H9.28171Z" fill="#5454D4"/>
<path d="M55.1361 7.80762H59.5325V28.4757H55.1361V7.80762Z" fill="#19191B"/>
<path fill-rule="evenodd" clip-rule="evenodd" d="M66.7954 14.4448C63.8941 15.6156 62.0098 18.3608 62.0223 21.3983C62.0071 23.39 62.8215 25.304 64.2823 26.7096C65.7432 28.1152 67.7277 28.8943 69.7893 28.8716C72.9336 28.8716 75.7677 27.0402 76.968 24.2327C78.1683 21.4252 77.4981 18.1956 75.2703 16.052C73.0425 13.9085 69.6967 13.2739 66.7954 14.4448ZM69.7269 18.2313C71.5768 18.1983 73.1087 19.6115 73.1599 21.3983C73.2099 22.284 72.8741 23.1496 72.2338 23.7855C71.5936 24.4214 70.7073 24.7696 69.7893 24.7459C67.9391 24.746 66.4344 23.3059 66.4172 21.5185C66.4001 19.7312 67.877 18.2643 69.7269 18.2313Z" fill="#19191B"/>
<path fill-rule="evenodd" clip-rule="evenodd" d="M95.0783 27.762V14.3198L90.7988 14.3169V15.7613C89.7549 14.5273 88.1672 13.8444 86.5194 13.9208C82.4997 14.0433 79.3069 17.2266 79.3069 21.1117C79.3069 24.9968 82.4997 28.1801 86.5194 28.3025C88.1672 28.3789 89.7549 27.6961 90.7988 26.4621V27.7563C90.8724 28.6101 90.5403 29.45 89.8963 30.0391C89.2522 30.6282 88.366 30.9027 87.4875 30.7851C86.0978 30.9221 84.7661 30.2113 84.1465 29.0018L80.3955 31.0968C81.863 33.4067 84.5432 34.7311 87.3409 34.5289C91.2385 34.5289 95.0783 32.5182 95.0783 27.762ZM88.7112 17.8422C90.0337 18.4183 90.8608 19.7135 90.8003 21.1138C90.8277 22.018 90.458 22.8912 89.7826 23.5178C89.1073 24.1443 88.1892 24.4658 87.2551 24.4028C85.8043 24.4045 84.4982 23.5539 83.9557 22.254C83.4133 20.9541 83.7436 19.4662 84.79 18.4954C85.8364 17.5246 87.3887 17.266 88.7112 17.8422Z" fill="#19191B"/>
<path fill-rule="evenodd" clip-rule="evenodd" d="M102.341 14.4448C99.4399 15.6156 97.5555 18.3608 97.5681 21.3983C97.5529 23.39 98.3673 25.304 99.8281 26.7096C101.289 28.1152 103.273 28.8943 105.335 28.8716C108.479 28.8716 111.313 27.0402 112.514 24.2327C113.714 21.4252 113.044 18.1956 110.816 16.052C108.588 13.9085 105.243 13.2739 102.341 14.4448ZM105.273 18.2313C107.123 18.1983 108.655 19.6115 108.706 21.3983C108.756 22.284 108.42 23.1496 107.78 23.7855C107.139 24.4214 106.253 24.7696 105.335 24.7459C103.485 24.746 101.98 23.3059 101.963 21.5185C101.946 19.7312 103.423 18.2643 105.273 18.2313Z" fill="#19191B"/>
<path fill-rule="evenodd" clip-rule="evenodd" d="M116.781 8.17171C115.795 8.56614 115.152 9.49534 115.152 10.526C115.167 11.9276 116.339 13.0604 117.79 13.0743C118.857 13.0743 119.819 12.4535 120.227 11.5012C120.635 10.549 120.41 9.45292 119.655 8.72411C118.901 7.99531 117.766 7.77729 116.781 8.17171ZM119.994 14.3198H115.596L115.59 28.477H119.994V14.3198Z" fill="#19191B"/>
<path fill-rule="evenodd" clip-rule="evenodd" d="M137.084 26.5421C138.398 25.1394 139.08 23.2881 138.977 21.3984C139.081 19.5083 138.399 17.6565 137.085 16.2533C135.77 14.8502 133.93 14.0117 131.973 13.9237C130.323 13.8368 128.72 14.4705 127.607 15.6497V14.3198H123.211V34.1384H127.607V27.1442C128.72 28.3243 130.323 28.9586 131.973 28.8717C133.929 28.7833 135.769 27.9449 137.084 26.5421ZM131.036 18.114C132.951 18.0831 134.533 19.5491 134.581 21.3983C134.647 22.3173 134.304 23.22 133.639 23.8795C132.973 24.5391 132.047 24.8928 131.095 24.8518C129.18 24.852 127.623 23.3608 127.607 21.5111C127.591 19.6613 129.122 18.145 131.036 18.114Z" fill="#19191B"/>
<path d="M152.544 24.2284C152.544 27.4845 149.614 28.8716 146.45 28.8716C143.833 29.1006 141.337 27.7658 140.148 25.5025L143.957 23.4075C144.274 24.4612 145.311 25.1573 146.444 25.0778C147.498 25.0778 148.026 24.7661 148.026 24.2012C148.026 22.6425 140.816 23.4647 140.816 18.5669C140.816 15.4795 143.513 13.9236 146.561 13.9236C148.894 13.8523 151.083 15.0127 152.275 16.9524L148.524 18.9058C148.187 18.1477 147.414 17.6573 146.561 17.6603C145.798 17.6603 145.329 17.9463 145.329 18.4525C145.335 20.067 152.544 18.9902 152.544 24.2284Z" fill="#19191B"/>
<path d="M168.603 14.3198V28.477H164.207V27.1457C163.178 28.3374 161.62 28.9799 160.018 28.8731C157.057 28.8731 154.541 26.8354 154.541 23.0101V14.3198H158.937V22.388C158.863 23.0705 159.103 23.75 159.594 24.2458C160.085 24.7417 160.777 25.0037 161.486 24.962C163.098 24.962 164.211 24.0568 164.211 22.0462V14.3241L168.603 14.3198Z" fill="#19191B"/>
<path d="M193.812 19.7838V28.4755H189.416V20.1514C189.416 18.7356 188.713 17.8304 187.307 17.8304C185.841 17.8304 185.02 18.8214 185.02 20.4917V28.4755H180.625V20.1514C180.625 18.7356 179.922 17.8304 178.514 17.8304C177.048 17.8304 176.228 18.8214 176.228 20.4917V28.4755H171.832V14.3183H176.228V15.6196C177.154 14.4466 178.633 13.8074 180.155 13.9222C181.686 13.8499 183.143 14.5589 183.994 15.7898C184.984 14.503 186.589 13.7977 188.244 13.9222C191.608 13.9236 193.812 16.2445 193.812 19.7838Z" fill="#19191B"/>
<path d="M197.531 14.2327C199.333 14.2327 200.793 12.8216 200.793 11.081C200.793 9.34029 199.333 7.9292 197.531 7.9292C195.729 7.9292 194.268 9.34029 194.268 11.081C194.268 12.8216 195.729 14.2327 197.531 14.2327Z" fill="#19191B"/>
</svg>
